<svg xmlns="http://www.w3.org/2000/svg" width="256" height="256" viewBox="0 0 100 100"><rect width="100" height="100" rx="20" fill="#50e3c2"></rect><path d="M77.45 78.35L77.45 78.35Q76.05 79.75 73.40 80.50Q70.75 81.25 67.05 81.25L67.05 81.25Q63.35 81.25 60.05 80.15Q56.75 79.05 54.65 74.85L54.65 74.85L44.75 54.65Q43.25 51.55 42.05 48.80Q40.85 46.05 39.45 42.45L39.45 42.45L38.75 42.65Q39.25 48.95 39.30 54.30Q39.35 59.65 39.35 64.55L39.35 64.55L39.35 80.45Q38.25 80.65 36.05 80.95Q33.85 81.25 31.55 81.25L31.55 81.25Q26.45 81.25 24.50 79.50Q22.55 77.75 22.55 73.25L22.55 73.25L22.55 22.95Q23.95 20.95 26.85 19.95Q29.75 18.95 33.05 18.95L33.05 18.95Q36.75 18.95 40.10 20.10Q43.45 21.25 45.45 25.35L45.45 25.35L55.45 45.55Q56.95 48.65 58.15 51.40Q59.35 54.15 60.75 57.75L60.75 57.75L61.15 57.65Q60.75 52.85 60.70 48.60Q60.65 44.35 60.65 40.45L60.65 40.45L60.65 19.55Q61.75 19.35 63.95 19.05Q66.15 18.75 68.45 18.75L68.45 18.75Q73.55 18.75 75.50 20.50Q77.45 22.25 77.45 26.75L77.45 26.75L77.45 78.35Z" fill="#fff"></path></svg>